# xmcd
#
# Track frame offsets: 
#        150
#        5743
#        26035
#        41413
#        56265
#        70658
#        85255
#        98893
#        112405
#        125515
#        144628
#        158148
#        171530
#        184500
#        196605
#        207813
#        221293
#        235945
#        250878
#        265668
#        281580
#        296443
#        310585
#
# Disc length: 4345 seconds
#
# Revision: 0
# Processed by: cddbd v1.5.2PL0 Copyright (c) Steve Scherf et al.
# Submitted via: ExactAudioCopy v0.95b3
#
DISCID=4710f717
DTITLE=Frank Sinatra  - Volume 1 1935-1940 Complete Edition
DYEAR=1900
DGENRE=
TTITLE0=Shine
TTITLE1=Our Love
TTITLE2=From The Bottom Of My Heart
TTITLE3=From The Bottom Of My Heart
TTITLE4=Melancholy Mood
TTITLE5=Melancholy Mood
TTITLE6=My Buddy
TTITLE7=It's Funny To Everyone For Me
TTITLE8=Here Comes The Night
TTITLE9=Here Comes The Night
TTITLE10=All Or Nothing At All
TTITLE11=All Or Nothing At All
TTITLE12=On A Little Street In Singapore
TTITLE13=Who Told You I Cared
TTITLE14=Ciribiribin
TTITLE15=Everyday Of My Life
TTITLE16=The Sky Fell Down
TTITLE17=Too Romantic
TTITLE18=Too Romantic
TTITLE19=Shake Down The Stars
TTITLE20=Moments In The Moonlight
TTITLE21=I'll Be Seeing You
TTITLE22=Say It
EXTD=
EXTT0=
EXTT1=
EXTT2=
EXTT3=
EXTT4=
EXTT5=
EXTT6=
EXTT7=
EXTT8=
EXTT9=
EXTT10=
EXTT11=
EXTT12=
EXTT13=
EXTT14=
EXTT15=
EXTT16=
EXTT17=
EXTT18=
EXTT19=
EXTT20=
EXTT21=
EXTT22=
PLAYORDER=
